/* XPM */
static char *_e17ae97c7b74989b108d8d63ec86d0acoztSImv3hvj30Ps[] = {
/* columns rows colors chars-per-pixel */
"64 64 161 2 ",
"   c #1E1E4D",
".  c #1D1E54",
"X  c #201F4B",
"o  c #221E53",
"O  c #1D2147",
"+  c #1E224D",
"@  c #1E2253",
"#  c #1F2853",
"$  c #1D2459",
"%  c #1E295A",
"&  c #212147",
"*  c #23244D",
"=  c #29264E",
"-  c #26284E",
";  c #2A2B4E",
":  c #232554",
">  c #292655",
",  c #252955",
"<  c #2A2A55",
"1  c #25255A",
"2  c #29265A",
"3  c #262A5A",
"4  c #2A2B5C",
"5  c #322F56",
"6  c #30275C",
"7  c #302A5C",
"8  c #25305E",
"9  c #2D315D",
"0  c #30325D",
"q  c #262760",
"w  c #2D2761",
"e  c #262C62",
"r  c #2C2D63",
"t  c #2D2E68",
"y  c #312D64",
"u  c #312E69",
"i  c #263066",
"p  c #2D3163",
"a  c #2E336A",
"s  c #2E396E",
"d  c #323265",
"f  c #383566",
"g  c #343865",
"h  c #3A3A66",
"j  c #34346B",
"k  c #39356C",
"l  c #35396D",
"z  c #393A6D",
"x  c #2E3770",
"c  c #2E3C75",
"v  c #353571",
"b  c #393671",
"n  c #353B73",
"m  c #393B73",
"M  c #363F78",
"N  c #3A3E79",
"B  c #38406F",
"V  c #364076",
"C  c #3A4175",
"Z  c #37417A",
"A  c #3D437C",
"S  c #3E487E",
"D  c #41457D",
"F  c #43497F",
"G  c #3E4481",
"H  c #3E4A84",
"J  c #3F4C89",
"K  c #3D508A",
"L  c #424682",
"P  c #444B84",
"I  c #494D85",
"U  c #454689",
"Y  c #444D8A",
"T  c #494D8B",
"R  c #465187",
"E  c #465186",
"W  c #4A5086",
"Q  c #425188",
"!  c #45518B",
"~  c #46508B",
"^  c #47508B",
"/  c #44508C",
"(  c #47518E",
")  c #46528E",
"_  c #47538F",
"`  c #45548F",
"'  c #46578F",
"]  c #45518C",
"[  c #4A508A",
"{  c #4A558B",
"}  c #4B518D",
"|  c #49548C",
" . c #4B548D",
".. c #4A538C",
"X. c #4B588D",
"o. c #474F90",
"O. c #464F90",
"+. c #494E91",
"@. c #455090",
"#. c #445291",
"$. c #475292",
"%. c #445490",
"&. c #465392",
"*. c #495390",
"=. c #485393",
"-. c #4E5291",
";. c #4A5593",
":. c #485792",
">. c #4B5793",
",. c #4C5492",
"<. c #4D5593",
"1. c #4A5595",
"2. c #495794",
"3. c #4B5593",
"4. c #4E5991",
"5. c #4E5895",
"6. c #4A5D95",
"7. c #4D5A94",
"8. c #455298",
"9. c #4C5699",
"0. c #4A5A98",
"q. c #4D589A",
"w. c #4B5A9F",
"e. c #4E5B9A",
"r. c #515695",
"t. c #505994",
"y. c #535997",
"u. c #525A95",
"i. c #52579B",
"p. c #505A9F",
"a. c #505E9D",
"s. c #535D9B",
"d. c #516097",
"f. c #50609B",
"g. c #53619E",
"h. c #55619D",
"j. c #57639D",
"k. c #54629F",
"l. c #53669E",
"z. c #54629D",
"x. c #58639E",
"c. c #4F64A3",
"v. c #5462A1",
"b. c #5661A3",
"n. c #5366A0",
"m. c #5467A1",
"M. c #5267A6",
"N. c #5466A4",
"B. c #5567A7",
"V. c #5766A7",
"C. c #5463A2",
"Z. c #5861A2",
"A. c #5866A3",
"S. c #5A65A5",
"D. c #5965A3",
"F. c #546BA1",
"G. c #5769A2",
"H. c #5969A7",
"J. c #5464A9",
"K. c #5867A8",
"L. c #5860A8",
/* pixels */
": 4.0._ 5.B.M.m.B.b.M 8 j.:.J p.H.6.' $.,.e V j.%.A.A.2.Y _  .P , e.w.~ ,.n.G.B.z.z.n i Z.$.Q s.K.f.' o.-.e A b.:.j.S.2.o.*._ 2.",
"* I _ A S _ J E ~ Y l 3 t.P A Y ,.E V G P 4 m *.n  .~ P A A L m * T $.m D { H Y E Y l p t.G S Y ,.I M G L 4 m :.C [ } L G G A C ",
"= D A 1 1 t $ d k v r : P n j j r d 1 t k : l G @ j r k k u d . * H Z : 2 p @ a l j r 3 T v j j t r 1 t k : j H @ d d j k d r : ",
"= A S d f d 1 y j j d 3 T n d y y k d j b 3 z P d j 2 r k j k y * P S d d d : d j j d 4 T n j u y f d k b 3 l H d j w r k k k d ",
": A Z r f j r 7 d b p 3 T n r y r r k d k : l Y d r r u k d d k * P V 9 d j 4 y j b d 3 T n r y y d k d k : z H d r r r k j d k ",
"4 A n : > p j 2 d n p 4 Y n r r r 1 d q d 4 l H : : d l l d 1 d 4 H s : 2 j d 2 d k d 3 Y m 4 w 2 4 p 1 d , B G : : d l l p 1 d ",
"= e i : > 4 p : , r > * j 2 : 1 2 , 4 1 4 * 4 a : : 4 2 2 3 : 4 * i 3 * : r 4 : , 2 4 : j e * : 2 , , : 2 * 9 i * : 2 2 2 : : 0 ",
"5 @ 3 : < : : < , 4 = = < : : : : , : 2 2 = < : : < : : , , < : < 1 , ; o 1 : < , : < = 1 : * < > * , : 4 * - 1 * < : : 4 : , < ",
"G.R H } S % b./ _ :.b.m.b.j.4.e c s._ Y y.j.6.Q Y } # [ 5.:.J.l.m.$.L *.S $ L.~ P 9.B.l.l.b.5.i c s.$.Y s.j.5.J T T #  .,. .J.B.",
"P F L L l 3 y.P C G Y H } I P e n t.A A } } S A P G , I Y A T E P P F L l 3 i.L m Y :.S ~ T I p n t.Z A } } L C P A , W P A *.[ ",
": 4 j b 4 4 L n 1 e r 1 n j k 2 a I a d d d r 1 d u , A j 1 j d : r j b 4 4 U n : t t @ j j k : a I r k d d r 1 j t , A a : b f ",
"f 4 u k 7 4 I m d j d 1 k k k 2 j P d k w y k d k b : A C d k 2 d w d b 4 4 T m g d r 1 j j k < j P d m w y k d k b : S C d k < ",
"k > y b d 1 T j r j d r y k k 1 a I j d w w k k y m @ S A 9 u 6 d 2 4 b r , Y j d d d d p k m > j I j d r r j j r m @ S A p u < ",
": * y b d 4 I t : 4 d d 4 d k 4 l W d 1 d r 2 d : b 3 F l + 2 k : : d m p 4 Y i @ t d p : j m , l I j 1 d 2 2 p : b , D n @ 1 h ",
"> * 4 w : : j 1 : 3 4 4 : : 4 : 3 d 3 + 4 4 : 4 > 2 : d 4 * : 2 : : 4 r : : v 3 : r r < : 2 r * 3 d 3 @ 4 3 : 4 : 2 * d r * : 9 ",
"< = 2 2 = < 1 , 4 : : : < : < : , * < < , * 4 , ; : 4 2 : ; 4 : > * : 1 * < 1 : : 1 : * < : , - , : < < : : , 3 , : ; * : < 1 < ",
"@  .2.Y ~ b.S.f.f.s.M e s.$.H e.b.e.$._ [ i Z z.' f.j.%.Y _ P P % } *.[ E b.m.z.j.5.n i s.T L q.b.u.~ T } 3 C s./ b.A.:.Y I I [ ",
": I T A D T P [ [ T k 4 r.P F } ,.Y Z C I r A  .V [ [ L S S D m , T T A C } Y E } -.l e y.P A T ,.E V A P 4 C :.M [  .L C D D D ",
": P L 1 : d 1 p d j r 3 T v d u u d 1 r z : k D @ j p d k d u . , F N 3 : r 1 d p b r 3 T b d u a p 1 r k , g H 1 p j d k k r 1 ",
": D A d f j 1 d k v d 3 T b d u y k r j k 2 l L d j r r k k k y : F D d f j 1 d k j d 4 I j k y y f d j k , l L d d r r j k j d ",
": D N p f k r 4 j b p 3 T n p y 4 d k d d 2 l L d r r u k j d k @ L N r j k r 4 k j r 4 T j f r y d h u k : z P d p e d k d j m ",
"4 P n : : k k : r k p 4 T m 4 4 4 1 k 1 d 4 m S @ : p k k r 1 r 3 P n : 3 d d 4 r b p 4 } n 3 w w 4 d q j < z G @ 3 d m m r r j ",
": e q , * 4 2 , 3 r , : j 3 , 2 4 : 4 @ 4 : 4 e * : 4 4 4 : 1 4 O p t @ : r e : 4 r 4 + j e * 4 2 , 4 : 4 * 4 t * : 3 2 2 : : d ",
"< : 3 < & < : , * 3 = * 3 : * : * , : 4 < * , : * < * : , : 3 : ; : 2 : * : : < : o 4 : $ 3 * * : * , 1 4 * - 1 < < : : 4 > : < ",
"A.1.L } L $ b.Y Y 2.B.m.z.j.7.e n s.} T y.j.5.Y P T $ Y 5.{ J.n.x.~ Y o.A % s._ J 2.b.f.z.b.:.i n u._ Y s.j.5.Y I T @ _ 5.:.C.m.",
"P Y F L n 3 t.P A P } P } ~ P i l u.S A [ } F V P G 3 W I A T ~ P F Y L l 3 5.Y V Y *.S [ } T r n u.Z G } } L A P A : I Y S *.[ ",
": r f k r 4 L M : r t $ k d j 1 d I a j d d e 1 j j : D j 3 j d @ 3 b b 4 3 L n : r t @ j j b : a I r b d d r 1 j t : F j : b d ",
"d r 0 j 4 4 P M d k d 1 j j j 2 j P j m r r k y k b : D C d j > d 4 d b 4 4 P m f d r 1 k j k 2 j P d m r r k d m j : F m r k : ",
"g 1 4 k p , I j y j d r r k k 2 a I j a 2 r j j y m @ A S 9 u 2 j > w b r 1 T j d d d d r k b 1 j P j a r 2 k k d m : D C 4 d < ",
": @ 9 l d 4 I i @ e p d 1 d l r j W j 1 d r 2 d 1 b 3 A m @ q f : * r m d r T e : t d d : j m 3 n I j 1 d 4 2 d 1 b 3 D n @ 1 h ",
"- : < 2 : * j 3 : 4 4 4 : 1 4 : 2 l 4 @ 4 4 1 r , 1 * d r * 1 4 : - 4 r : : k : : e r 4 : 2 r : 2 j 3   4 4 : 2 : 2 * p p : : 9 ",
"< : * : : < : > : : : : : : 4 : 3 * 4 : : : 4 : , : < 2 : < 1 * : - : 3 , 3 3 - , 3 1 * < : : - 4 : , , * : > : > > < : 1 , 1 < ",
", +.q.~ _ j.l.n.f.e.m e s.2.H e.m.e.*.Y [ e Z s._ b.b.2.T T } P , <.1.~ T C.m.v.n.e.M e s.:.S s.v.6.] T } 3 A s._ s.Z.$.Y _ P R ",
"- Y <.A C } L ~  .Y l 4 r.P S T X.Y N S P e V  .M  .~ P G A L m @ T T A Z *.L Y ~ P l e t.P C P :.I V A P 4 C :.A } } P G L D A ",
"- D G 3 1 r : a d j 4 3 I j d u p a $ a l : l L @ j a j b a j @ * L D 3 1 a : d l v r 4 T v j j d p 1 t k , d H @ j d d k d r : ",
"- D A 4 j j : d k v r 4 T j j u r j u j l 1 n L d f 2 r k k k r * L D 9 d j : d k b d 4 T j f y y f d k k 4 l P d f w r k k k d ",
"* L M 4 k j 4 4 j b r 3 _ v d y y d m y j 1 n P d 4 r y k k d k + P N 4 j k 4 4 j v r 3 } a d w w d h u j : z H d r r r k k d k ",
"< P l @ r u f 3 r k r 9 T n 4 q r 2 k 1 d 4 m L : : d k b d 1 d < P n : 2 d d 1 d b p 4 Y n r r 4 4 d q d , z S : : d k k r 1 d ",
"& p 3 * 2 r 4 @ 4 e : * j 3 , 4 4 1 2 : 4 : 4 r + : 4 2 2 : : 4 O t e * , r 4 : 3 2 , , j e : 3 2 , 4 1 2 * 9 t : : 2 r r 1 : d ",
"< : , * 2 o : , , : = * 1 : * > : : : , < + , : , , : : 3 : : : ; : 2 * : : * 3 , : > * 1 : * < : * , 1 2 * = : : 4 : : 4 : < < ",
"z.8.H +.S # j.@._ *.b.m.z.f.4.i c s._ Y 5.z.6.K P _ $ T ,. .J.n.f.@.H } S @ j.Q P 2.C.z.z.v.:.i n u.:.Y s.m.6.J P T % X.,. .C.l.",
"F Y L L l 3 5.H N P  .H } ~ I t n u.G A } } H Z P A 1 I T A _ [ P Y D L n 3 t.L C Y :.S ~ T Y e n u.S A [ ,.S A P Z 3 [ P A *.{ ",
": r d b r 4 L n : e r . j j k 1 a I a j d a r 1 d u : D k : j d : r d k r 4 L n : t t @ j j b : a I p j a j 3 1 j t , A a # b l ",
"f r y j y 4 T n d j r 1 j j j 2 a P j n r w k y k b : C C d j > p r d k r 4 P m d d r 1 f j k 2 j P a n 2 r j d k b : D C p k > ",
"g 1 4 k r 3 Y a d j d r r k k 2 a I j d r w j j y m @ S A p u 2 d 1 p n r , T n d d d d p k b 2 j P j d r r j j y m @ D S p t 2 ",
", @ 9 m d 4 P p . 4 d d 1 j k 2 s W a 1 p r 2 d 1 b 3 D n @ q k : $ p n j 4 I i : r d d : d m 4 l W a 1 j 2 2 p 1 b , D n @ 3 h ",
"< : < 4 1 : d , @ 4 4 4 : 4 r : 3 d 3 @ 4 4 : 4 : 1 * p e : 1 4 , 1 4 2 : , j : : r r 4 : 3 r : 3 l 3 @ p 1 1 2 3 3 * p e : 1 0 ",
", : * : : < : - 4 : : : > * > < , * < > : * < : < : < : : < 3 * * : , : : , : , : 1 : * < : 1 < : : , 4 : : 4 : , : < : : < 1 < ",
"# [ 5.~ ' v.B.d.x.s.m e s._ L r.m.6.*.Y [ e Z s./ z.z.&.Y Y T P , ,.8.Y ~ m.v.c.J.0.C 9 y.8.J 0.v.e.@.Y [ q Z e.Q f.z.&.Y Y Y ~ ",
": I } A A } P I I T l 4 t.P A P X.Y m D F e A ,.M  .~ P G S P m * [ +.Z A } H / Y T l 3 y.Y A Y ,.T Z A P e V  .V I } H G G C C ",
", F D 1 1 t 1 d b j y 3 P v j j p d 1 d j : l L . j r d k u d . * F G 3 1 d $ a j b 4 : T v d j u t 1 r j 1 j H @ p k d k k r 1 ",
": F D p f j 1 d k j u 2 T b d r y j y j k 1 m L d j 2 r k k m y : F A p d j 1 d k j r 4 Y a h 7 y j j j h 2 n P d d r r j k j d ",
"@ L N r f k w 4 j v y 4 T n r w 4 d k d j 3 n P d r r d k k d k : L M 4 f k w 4 f j e e T v f 2 4 d k y f 1 M H d r r r j d d k ",
"3 P b : 3 d d 4 d b r 4 T m p r 4 1 j 1 d 4 m L @ : d k k p 1 d 3 F n : 4 j d , p m r 3 T n 4 y 4 2 d 1 d 4 m G @ 3 p k m r 4 j ",
"* d r : : p 2 , : 2 : : j e , : 4 : 2 : 4 : 4 r : : 2 2 2 1 : 4 + r 4 : : r r * : r 2 : k 4 * 2 2 4 4 : < : r t   : 4 4 2 : : p ",
"< : 1 > * 3 @ < , 2 : - 3 : - > : > : 3 < * < : : 4 : : 1 : : : 2 : , - * 1 : < < : 2 < : * - : * : < > < = > 1 * < : : , : : 4 ",
"l.8.H $.S # j.o.Y :.v.B.e.j.4.i n s.$.J z.l.e.J Y *.$ [ 4.X.J.b.z.' H } S $ x.T Q %.m.m.z.s.4.t n s._ Y j.j.s.Y P } # T r. .b.G.",
"P Y L L n 3 t.Y N P } H Y [ I r l u.G G } X.S Z P G 3 I I A +.T L P L D n q u.P m P  .H ~ T I r n u.A A } ,.L N L A , I Y A _ { ",
": r d l r 4 L n : e r . j d k 2 d I t v a j r 1 j j 3 C j : j d : e k k r 4 P n 1 e r . j d k 2 j P a j a j 1 1 j a , A l # a l ",
"g e d k r 4 P M f f d 1 k j j 2 j P j m 2 r j d k b : A A d k > d y u k r 4 P M j j y 1 k j j 2 j P j n 3 r j d k j @ A A p k < ",
"g 1 4 j r , Y l d d d r d d j 2 a I v t r 2 j k y m @ S A p y > f 2 r k r 1 P x y j d r d j j 1 a I a a e 3 k j y b @ A C r u 7 ",
": @ 9 k j 3 I p @ 4 d p 3 j m 2 l I j 1 d 4 2 p : b 3 F M : 1 f : : d m j 3 P a . r d d 3 j k 2 n [ a 1 j 3 r r 1 b , D n @ q h ",
", : < 4 1 : j , @ 4 4 4 : 4 r : 3 d 3 . 4 4 : 2 : 1 * d 4 * 1 4 : : 4 4 : : d 3 : 4 p 4 : 4 r : r j 3 @ p 3 : 2 , 1 * d r : 1 5 ",
"< : * : : , : * : : + : : : : : : + : > * * : : : . ; * X - : * , : : : : , * : : : * * : * : : 2   > > : : : : :   < : : : 1 - "
};
